<svg xmlns="http://www.w3.org/2000/svg" viewBox="0 0 533.5 544.3">
  <path fill="#4285F4" d="M533.5 278.4c0-18.3-1.6-36-4.6-53.1H272v100.6h146.9c-6.3 34-25.6 62.9-54.7 82v68.1h88.4c51.7-47.6 81.9-117.9 81.9-197.6z"/>
  <path fill="#34A853" d="M272 544.3c73.6 0 135.5-24.4 180.7-66.3l-88.4-68.1c-24.6 16.5-56 26.3-92.3 26.3-70.9 0-131-47.8-152.4-112.2H31.9v70.6C75.9 494.1 168.7 544.3 272 544.3z"/>
  <path fill="#FBBC05" d="M119.6 324.2c-11.8-35.2-11.8-73.6 0-108.8V144.8H31.9c-38.1 75.9-38.1 167.9 0 243.8l87.7-64.4z"/>
  <path fill="#EA4335" d="M272 107.1c39.9 0 75.9 13.7 104.2 40.7l78.1-78.1C407.6 24.3 345.7 0 272 0 168.7 0 75.9 50.2 31.9 144.8l87.7 70.6C141 154.9 201.1 107.1 272 107.1z"/>
</svg>